<?xml version="1.0" encoding="iso-8859-1"?>
<!-- Generator: Adobe Illustrator 19.0.0, SVG Export Plug-In . SVG Version: 6.00 Build 0)  -->
<svg xmlns="http://www.w3.org/2000/svg" xmlns:xlink="http://www.w3.org/1999/xlink" version="1.1" id="Layer_1" x="0px" y="0px" viewBox="0 0 512 512" style="enable-background:new 0 0 512 512;" xml:space="preserve" fill="#dc6964">
<g>
	<path d="M391,271h60v-30h-30.676c-1.736-19.183-6.778-37.424-14.536-54.16l26.587-15.35l-15-25.98l-26.628,15.374   c-10.866-15.348-24.282-28.765-39.63-39.63l15.374-26.628l-25.98-15l-15.35,26.587c-16.735-7.757-34.978-12.792-54.16-14.528V61   h-30v30.685c-19.182,1.736-37.424,6.771-54.16,14.528l-15.35-26.587l-25.98,15l15.374,26.628   c-15.348,10.866-28.765,24.283-39.63,39.63L94.625,145.51l-15,25.98l26.587,15.35c-7.758,16.736-12.8,34.977-14.536,54.16H61v30h60   v-15c0-74.439,60.561-135,135-135s135,60.561,135,135V271z"/>
	<path d="M271,243.58V151h-30v92.58c-17.459,6.192-30,22.865-30,42.42s12.541,36.228,30,42.42V361h30v-32.58   c17.459-6.192,30-22.865,30-42.42S288.459,249.772,271,243.58z M256,301c-8.271,0-15-6.729-15-15s6.729-15,15-15s15,6.729,15,15   S264.271,301,256,301z"/>
	<path d="M485.312,370.671C502.792,335.533,512,296.075,512,256C512,115.03,396.951,0,256,0C115.031,0,0,115.049,0,256   c0,140.97,115.049,256,256,256c42.65,0,84.185-10.335,121.047-29.992C390.745,500.208,412.52,512,437,512c41.355,0,75-33.645,75-75   c0-13.192-3.464-26.146-10.008-37.442L485.312,370.671z M256,482C131.383,482,30,380.617,30,256S131.383,30,256,30   s226,101.383,226,226c0,28.443-5.23,56.507-15.263,82.501l-29.736-51.497L372,399.561c-6.542,11.307-10,24.253-10,37.439   c0,6.162,0.762,12.146,2.17,17.879C331.341,472.654,294.193,482,256,482z M437,482c-24.813,0-45-20.187-45-45   c0-7.917,2.063-15.668,5.973-22.425l39.026-67.579l39.023,67.582c3.91,6.75,5.978,14.504,5.978,22.422   C482,461.813,461.813,482,437,482z"/>
	<rect x="211" y="392"/>
</g>
</svg>
