<svg id="Layer_3" enable-background="new 0 0 64 64" viewBox="0 0 64 64" xmlns="http://www.w3.org/2000/svg" fill="#dc6964"><g><path d="m32 1c-17.094 0-31 13.906-31 31s13.906 31 31 31 31-13.906 31-31-13.906-31-31-31zm0 60c-15.99 0-29-13.01-29-29s13.01-29 29-29 29 13.01 29 29-13.01 29-29 29z"/><path d="m59 31h-2.025c-.515-12.99-10.985-23.46-23.975-23.975v-2.025h-2v2.025c-12.99.515-23.46 10.985-23.975 23.975h-2.025v2h2.025c.515 12.99 10.985 23.46 23.975 23.975v2.025h2v-2.025c12.99-.515 23.46-10.985 23.975-23.975h2.025zm-26 23.975v-1.975h-2v1.975c-11.888-.512-21.463-10.087-21.975-21.975h1.975v-2h-1.975c.512-11.888 10.087-21.463 21.975-21.975v1.975h2v-1.975c11.888.512 21.463 10.087 21.975 21.975h-1.975v2h1.975c-.512 11.888-10.087 21.463-21.975 21.975z"/><path d="m32 15c-9.374 0-17 7.626-17 17s7.626 17 17 17 17-7.626 17-17-7.626-17-17-17zm0 32c-8.271 0-15-6.729-15-15s6.729-15 15-15 15 6.729 15 15-6.729 15-15 15z"/><path d="m32 19c-7.168 0-13 5.832-13 13s5.832 13 13 13 13-5.832 13-13-5.832-13-13-13zm0 24c-6.065 0-11-4.935-11-11s4.935-11 11-11 11 4.935 11 11-4.935 11-11 11z"/><path d="m33 26c0-.404-.243-.77-.617-.924-.375-.156-.804-.07-1.09.217l-4 4 1.414 1.414 2.293-2.293v8.586h-3v2h8v-2h-3z"/></g></svg>