<svg id="outline" viewBox="0 0 512 512" xmlns="http://www.w3.org/2000/svg" fill="#dc6964"><path d="m280 120v16h-24a8.00008 8.00008 0 0 0 -8 8v24h-24a8.00008 8.00008 0 0 0 -8 8v16h-24a8.00008 8.00008 0 0 0 -8 8v40a8.00008 8.00008 0 0 0 8 8h128a8.00008 8.00008 0 0 0 8-8v-120a8.00008 8.00008 0 0 0 -8-8h-32a8.00008 8.00008 0 0 0 -8 8zm-80 88h16v24h-16zm32-24h16v48h-16zm32-32h16v80h-16zm32-24h16v104h-16z"/><path d="m232 256h16v16h-16z"/><path d="m200 256h16v16h-16z"/><path d="m264 256h16v16h-16z"/><path d="m296 256h16v16h-16z"/><path d="m56 239.99951v80.9043a95.80575 95.80575 0 0 0 42.749 79.87646l5.251 3.50086v75.71887a8.00008 8.00008 0 0 0 8 8h96a8.00008 8.00008 0 0 0 8-8v-100.40747a183.679 183.679 0 0 0 80-.00171v100.40918a8.00008 8.00008 0 0 0 8 8h96a8.00008 8.00008 0 0 0 8-8v-75.71887l5.251-3.50086a95.80575 95.80575 0 0 0 42.749-79.87646v-80.9043a24.04179 24.04179 0 0 0 -16.80762-22.89715c.52295-5.67554.80762-11.39836.80762-17.10236a8.00008 8.00008 0 0 0 -8-8h-64a8.00008 8.00008 0 0 0 -8 8 104 104 0 1 1 -104-104 8.00008 8.00008 0 0 0 8-8v-64a8.00008 8.00008 0 0 0 -8-8c-101.458 0-184 82.542-184 184 0 5.704.28491 11.42682.80762 17.10236a24.04179 24.04179 0 0 0 -16.80762 22.89715zm144 232.00049h-80v-64h80zm192 0h-80v-64h80zm48-151.09619a79.8397 79.8397 0 0 1 -35.624 66.564l-6.79788 4.53219h-85.57812v-16.74414a184.20753 184.20753 0 0 0 40.56738-18.63892 62.24033 62.24033 0 0 0 -.56738 8.23365v11.14941h16v-11.14941a45.81011 45.81011 0 0 1 20.44336-38.19532 7.999 7.999 0 0 0 3.56348-6.6582l-.00684-31.99561a8 8 0 0 1 16-.0039v40.00244h16l.001-88.00049a7.99951 7.99951 0 1 1 15.999 0zm-192-288.71581v48.07567a120.0017 120.0017 0 1 0 127.73633 127.73633h48.07519c-.15283 3.25067-.4082 6.49341-.74511 9.71637a24.03021 24.03021 0 0 0 -15.06541 22.28463l.001 25.37573a23.99677 23.99677 0 0 0 -32.002 22.62766l.00586 27.89795a61.83939 61.83939 0 0 0 -12.81055 13.44983 167.98183 167.98183 0 0 1 -214.39355-.00415 61.82008 61.82008 0 0 0 -12.80762-13.44568l.00586-27.89892a23.99142 23.99142 0 0 0 -32.00195-22.62659l.001-25.37537a24.03007 24.03007 0 0 0 -15.06811-22.28613 170.62536 170.62536 0 0 1 -.93094-17.71533c0-89.95557 71.0625-163.62451 160-167.812zm-176 207.81151a7.99951 7.99951 0 1 1 15.999.00049l.001 88h16v-40.00146a8 8 0 1 1 16 .00244l-.00684 31.99609a7.999 7.999 0 0 0 3.56348 6.6582 45.81011 45.81011 0 0 1 20.44336 38.19532v11.14941h16v-11.14941a62.21941 62.21941 0 0 0 -.56714-8.23218 184.17664 184.17664 0 0 0 40.56714 18.64038v16.74121h-85.57812l-6.79786-4.53223a79.8397 79.8397 0 0 1 -35.62402-66.56396z"/><path d="m384 152h32v16h-32z"/><path d="m304 32v16h-16v16h16v16h16v-16h16v-16h-16v-16z"/></svg>