<?xml version="1.0" encoding="utf-8"?>
<!-- Generator: Adobe Illustrator 24.1.0, SVG Export Plug-In . SVG Version: 6.00 Build 0)  -->
<svg version="1.1" id="Camada_1" xmlns="http://www.w3.org/2000/svg" xmlns:xlink="http://www.w3.org/1999/xlink" x="0px" y="0px"
	 viewBox="0 0 128 128" style="enable-background:new 0 0 128 128;" xml:space="preserve">
<path d="M116.9,103.7L95.7,82.5c-1-1-2.3-1.5-3.6-1.5h-3.5c15-19.2,11.6-47-7.6-62.1S34,7.3,19,26.6s-11.6,47,7.6,62.1
	c16,12.5,38.4,12.5,54.4,0v3.5c0,1.4,0.5,2.7,1.5,3.6l21.2,21.2c2,2,5.2,2,7.2,0c0,0,0,0,0,0l6-6
	C118.9,108.9,118.9,105.7,116.9,103.7z M53.8,81c-15,0-27.2-12.2-27.2-27.2s12.2-27.2,27.2-27.2S81,38.8,81,53.8S68.8,81,53.8,81z"
	/>
</svg>
