<?xml version="1.0" encoding="utf-8"?>
<!-- Generator: Adobe Illustrator 24.1.0, SVG Export Plug-In . SVG Version: 6.00 Build 0)  -->
<svg version="1.1" id="Camada_1" xmlns="http://www.w3.org/2000/svg" xmlns:xlink="http://www.w3.org/1999/xlink" x="0px" y="0px"
	 viewBox="0 0 128 128" style="enable-background:new 0 0 128 128;" xml:space="preserve">
<path d="M59.9,94.1L13.3,47.5c-2.2-2.2-2.3-5.9,0-8.1c0,0,0,0,0,0l5.4-5.4c2.2-2.2,5.9-2.2,8.1,0L64,70.8l37.1-36.9
	c2.2-2.2,5.9-2.2,8.1,0l5.4,5.4c2.2,2.2,2.3,5.9,0,8.1c0,0,0,0,0,0L68.1,94.1C65.8,96.3,62.2,96.3,59.9,94.1L59.9,94.1z"/>
</svg>
