<?xml version="1.0" encoding="utf-8"?>
<!-- Generator: Adobe Illustrator 24.1.0, SVG Export Plug-In . SVG Version: 6.00 Build 0)  -->
<svg version="1.1" id="Camada_1" xmlns="http://www.w3.org/2000/svg" xmlns:xlink="http://www.w3.org/1999/xlink" x="0px" y="0px"
	 viewBox="0 0 128 128" style="enable-background:new 0 0 128 128;" xml:space="preserve">
<g>
	<path d="M0.2,64.1V98h127.6V30L0.2,64.1z M20.2,81.9c-0.4,0.5-0.9,0.9-1.4,1.2c-0.5,0.4-1.1,0.6-1.7,0.9c-0.6,0.2-1.3,0.3-1.9,0.3
		c-1,0-1.9-0.2-2.8-0.5c-0.8-0.3-1.5-0.8-2.1-1.4c-0.6-0.7-1.1-1.4-1.4-2.3c-0.3-1-0.5-2-0.5-3c0-1,0.2-2,0.5-2.9
		c0.4-0.9,0.9-1.6,1.5-2.3c0.7-0.7,1.5-1.2,2.4-1.5c1-0.4,2-0.6,3-0.5c0.7,0,1.3,0.1,1.9,0.3c0.6,0.2,1.1,0.5,1.6,0.8
		c0.4,0.3,0.8,0.7,1.1,1.1c0.2,0.5,0.4,1,0.4,1.5c0,0.6-0.2,1.1-0.6,1.5c-0.4,0.4-1,0.6-1.6,0.6c-0.7,0-1.4-0.2-1.9-0.6l0.5-3.7
		c-0.3-0.1-0.6-0.2-1-0.2c-0.5,0-1,0.1-1.5,0.4c-0.5,0.3-0.9,0.7-1.1,1.1c-0.3,0.6-0.6,1.2-0.7,1.8c-0.2,0.7-0.3,1.5-0.3,2.3
		c-0.1,1.4,0.3,2.8,1.1,4c0.6,0.9,1.7,1.5,2.8,1.5c0.7,0,1.5-0.2,2.1-0.6c0.7-0.4,1.2-1,1.6-1.7l0.9,0.6
		C20.9,80.9,20.6,81.4,20.2,81.9z M36.2,83.6c-0.6,0.4-1.2,0.6-1.9,0.6c-0.8,0-1.5-0.2-2.1-0.7c-0.6-0.5-1-1.2-1.1-2
		c-0.3,0.8-0.9,1.6-1.7,2.1c-0.8,0.5-1.7,0.7-2.7,0.7l0,0c-1,0-2.1-0.3-2.8-1c-0.7-0.7-1.1-1.6-1.1-2.6c0-0.7,0.2-1.5,0.6-2.1
		c0.4-0.6,1-1.1,1.6-1.4c0.8-0.4,1.7-0.6,2.6-0.8c1.1-0.2,2.2-0.3,3.3-0.3v-1.6c0.1-0.9-0.2-1.8-0.6-2.6C30,71.3,29.3,71,28.6,71
		c-0.5,0-1,0.1-1.5,0.2l0.3,3.3c-0.3,0.2-0.6,0.4-0.9,0.5c-0.3,0.1-0.7,0.2-1.1,0.2c-0.5,0-1-0.2-1.5-0.5c-0.4-0.3-0.6-0.8-0.6-1.3
		c0-0.5,0.2-1,0.5-1.4c0.3-0.5,0.8-0.9,1.3-1.1c0.6-0.3,1.2-0.6,1.9-0.8c0.7-0.2,1.5-0.3,2.2-0.3c1.5-0.1,3,0.4,4.1,1.3
		c1,1.1,1.4,2.5,1.3,3.9c0,0.6,0,1.1,0,1.6c0,0.5,0,1,0,1.4s0,0.9,0,1.3c0,0.4,0,0.9,0,1.4c0,1.1,0.3,1.7,1,1.7
		c0.2,0,0.5-0.1,0.7-0.2c0.2-0.2,0.4-0.5,0.6-0.7l0.8,0.6C37.4,82.7,36.9,83.3,36.2,83.6z M53.5,79.9c-0.2,0.8-0.6,1.6-1.1,2.3
		c-0.5,0.6-1.2,1.1-1.9,1.5c-0.8,0.4-1.6,0.6-2.4,0.5c-1.8,0.1-3.4-0.9-4.1-2.6v8.1l-3.6,1V72.9c0-0.2,0-0.3-0.1-0.4
		c-0.1-0.1-0.3-0.1-0.4-0.1l-1.7-0.1v-1.1l5.3-1.4l0.4,0.1l-0.3,4.3c0.2-1.2,0.7-2.3,1.6-3.1c0.9-0.8,2-1.2,3.2-1.1
		c0.8,0,1.6,0.2,2.3,0.5c0.7,0.4,1.3,0.9,1.8,1.5c0.5,0.7,0.9,1.5,1.1,2.3c0.3,1,0.4,2,0.4,3C54,78.1,53.8,79,53.5,79.9z M63.9,83.3
		c-0.7,0.5-1.6,0.8-2.6,0.8c-1.1,0.1-2.1-0.4-2.8-1.1c-0.7-0.9-1-2-1-3.2v-8.3h-2.7v-1.4h2.7v-4.2L61,65l0.4,0.1v5.1h4.1l-0.2,1.4
		h-3.9v8c0,0.7,0.1,1.3,0.4,1.9c0.3,0.4,0.7,0.6,1.1,0.6c0.7,0,1.3-0.5,1.9-1.6l0.9,0.6C65.3,82,64.7,82.8,63.9,83.3z M81.2,83.6
		c-0.6,0.4-1.2,0.6-1.9,0.6c-0.8,0-1.6-0.2-2.2-0.7c-0.6-0.5-1-1.2-1.1-2c-0.3,0.8-0.9,1.5-1.6,2c-0.8,0.5-1.7,0.7-2.6,0.7l0,0
		c-1,0-2.1-0.3-2.8-1c-0.7-0.7-1.1-1.6-1.1-2.6c0-0.7,0.2-1.5,0.6-2.1c0.4-0.6,1-1.1,1.6-1.4c0.8-0.4,1.7-0.6,2.6-0.8
		c1.1-0.2,2.2-0.3,3.3-0.3v-1.6c0.1-0.9-0.2-1.8-0.6-2.6c-0.4-0.6-1.1-0.9-1.8-0.9c-0.5,0-1,0.1-1.5,0.2l0.3,3.3
		c-0.3,0.2-0.6,0.4-0.9,0.5c-0.4,0.1-0.8,0.2-1.1,0.2c-0.5,0-1-0.2-1.4-0.5c-0.4-0.3-0.6-0.8-0.6-1.3c0-0.5,0.2-1,0.5-1.4
		c0.3-0.5,0.8-0.9,1.3-1.1c0.6-0.3,1.2-0.6,1.9-0.8c0.7-0.2,1.5-0.3,2.3-0.3c1.5-0.1,3,0.4,4.1,1.3c1,1.1,1.4,2.5,1.3,3.9
		c0,0.6,0,1.1,0,1.6c0,0.5,0,1,0,1.4s0,0.9,0,1.3c0,0.4,0,0.9,0,1.4c0,1.1,0.3,1.7,1,1.7c0.2,0,0.5-0.1,0.6-0.2
		c0.2-0.2,0.4-0.5,0.6-0.7l0.8,0.6C82.4,82.7,81.9,83.3,81.2,83.6z M91.8,83.9h-8v-1.1l1.5-0.2c0.1,0,0.3,0,0.4-0.1
		c0.1-0.1,0.1-0.3,0.1-0.4V65.3c0-0.2,0-0.3-0.1-0.4c-0.1-0.1-0.3-0.1-0.4-0.1l-1.7-0.2v-1.1l5.9-1.5l0.4,0.1l-0.2,4.6v15.5
		c0,0.1,0,0.3,0.1,0.4c0.1,0.1,0.3,0.1,0.4,0.1l1.5,0.2V83.9z M107.9,71.2l-1,0.2c-0.2,0-0.3,0.1-0.5,0.2c-0.1,0.1-0.2,0.2-0.3,0.4
		l-5.3,12.3c-0.5,1.1-0.9,2-1.3,2.8c-0.3,0.7-0.8,1.3-1.3,1.9c-0.8,1-2,1.5-3.3,1.5c-0.9,0-1.7-0.3-2.4-0.8
		c-0.6-0.5-0.9-1.3-0.9-2.2c-0.1-1.2,0.9-2.2,2.1-2.3c0.1,0,0.1,0,0.2,0c0.3,0,0.7,0.1,1,0.2c0.3,0.1,0.5,0.3,0.7,0.5L95.5,89
		c0.1,0,0.3,0,0.4,0c0.7-0.1,1.4-0.5,1.8-1.1c0.7-1.2,1.3-2.4,1.8-3.7l-5.5-12.3c-0.1-0.1-0.1-0.3-0.2-0.4c-0.1-0.1-0.3-0.2-0.5-0.2
		l-1-0.1v-1.1h7.6v1.1l-1.4,0.1c-0.1,0-0.3,0-0.4,0.1c-0.1,0-0.1,0.1-0.1,0.2c0,0.2,0.1,0.3,0.1,0.5l2.4,5.3l0.9,2.5l3.2-7.7
		c0.1-0.1,0.1-0.3,0.1-0.5c0-0.1,0-0.2-0.1-0.2c-0.1-0.1-0.3-0.1-0.4-0.1l-1.4-0.2v-1.1h5.1V71.2z M119.6,79.6
		c0,0.6-0.1,1.3-0.4,1.9c-0.3,0.6-0.7,1.1-1.1,1.5c-0.5,0.4-1.1,0.7-1.7,0.9c-0.7,0.2-1.5,0.4-2.2,0.3c-0.8,0-1.5-0.1-2.3-0.3
		c-0.6-0.2-1.2-0.6-1.7-1.1l-0.3,1.3h-1.1l-0.3-5.1h1.2c0.2,1,0.7,2,1.4,2.7c0.7,0.7,1.6,1,2.6,1c1.6,0,2.3-0.6,2.3-1.9
		c0-1-0.6-1.7-1.8-2.1l-2.3-0.8c-0.9-0.3-1.8-0.8-2.4-1.6c-0.5-0.7-0.8-1.5-0.8-2.4c0-0.6,0.1-1.2,0.4-1.7c0.2-0.5,0.6-1,1.1-1.4
		c0.5-0.4,1-0.7,1.6-0.9c0.7-0.2,1.4-0.3,2.1-0.3c0.6,0,1.3,0.1,1.9,0.3c0.6,0.2,1.1,0.5,1.6,0.9l0.3-0.8l1.2-0.3l0.2,4.6h-1.1
		c-0.1-0.9-0.6-1.7-1.2-2.3c-0.6-0.6-1.4-0.9-2.3-0.9c-0.7,0-1.3,0.1-1.9,0.5c-0.4,0.3-0.7,0.8-0.7,1.3c0,0.4,0.1,0.7,0.4,1
		c0.4,0.4,1,0.6,1.5,0.8l2.1,0.7c1.1,0.3,2.1,0.9,2.9,1.7c0.6,0.7,1,1.5,1,2.5L119.6,79.6z"/>
	<path d="M49,73.2c-0.3-0.8-1.1-1.4-2-1.4c-0.4,0-0.8,0.1-1.1,0.4c-0.4,0.3-0.7,0.6-0.9,1.1c-0.3,0.5-0.5,1.1-0.7,1.7
		c-0.2,0.7-0.2,1.4-0.2,2.2H44c0,0.6,0,1.3,0.1,1.9c0.1,0.6,0.2,1.2,0.5,1.7c0.2,0.5,0.5,0.9,0.9,1.2c0.4,0.3,0.9,0.5,1.4,0.5
		c0.9,0,1.7-0.6,2-1.4c0.5-1.2,0.8-2.6,0.7-3.9C49.8,75.7,49.5,74.4,49,73.2z"/>
	<path d="M72.7,77.9c-0.7,0.6-1.1,1.5-1,2.4l0,0c0,0.5,0.1,1,0.5,1.5c0.3,0.3,0.7,0.5,1.1,0.5c0.7,0,1.4-0.4,1.7-1
		c0.5-0.9,0.8-1.9,0.8-2.9v-1.1C74.8,77.1,73.7,77.4,72.7,77.9z"/>
	<path d="M27.7,77.9c-0.7,0.6-1.1,1.5-1,2.4l0,0c0,0.5,0.1,1,0.4,1.5c0.3,0.3,0.7,0.5,1.1,0.5c0.7,0,1.4-0.4,1.7-1
		c0.6-0.9,0.8-1.9,0.8-2.9v-1.1C29.8,77.1,28.7,77.4,27.7,77.9z"/>
</g>
</svg>
