<?xml version="1.0" encoding="utf-8"?>
<!-- Generator: Adobe Illustrator 24.1.0, SVG Export Plug-In . SVG Version: 6.00 Build 0)  -->
<svg version="1.1" id="Camada_1" xmlns="http://www.w3.org/2000/svg" xmlns:xlink="http://www.w3.org/1999/xlink" x="0px" y="0px"
	 viewBox="0 0 128 128" style="enable-background:new 0 0 128 128;" xml:space="preserve">
<path d="M119.4,31.9c-4.1,2-8.5,3.1-13,3.5c5-2.9,8.7-7.5,10.4-13c-4.5,2.6-9.5,4.4-14.7,5.2c-4.7-3.8-10.4-5.9-16.4-6.1
	c-12.6-0.2-23,9.9-23.4,22.5c-0.1,1.8,0.2,3.6,0.9,5.2c-18.2-0.7-35.3-9.2-46.7-23.4c-2,3.4-3.2,7.3-3.5,11.2
	c0.2,7.7,4.1,14.7,10.4,19c-3.6,0-7.2-0.9-10.4-2.6l0,0c0.1,10.8,7.6,20.2,18.2,22.5c-1.7,0-3.5,0.9-6.1,0.9h-4.3
	c3.1,9.3,11.8,15.6,21.6,15.6c-8.4,6-18.3,9.3-28.6,9.5H8.6c10.4,6.5,22.4,10.1,34.6,10.4c41.5,0,64.9-34.6,64.9-64.9v-2.6
	C112.3,41,116.1,36.7,119.4,31.9L119.4,31.9z"/>
</svg>
