<?xml version="1.0" encoding="utf-8"?>
<!-- Generator: Adobe Illustrator 24.1.0, SVG Export Plug-In . SVG Version: 6.00 Build 0)  -->
<svg version="1.1" id="Camada_1" xmlns="http://www.w3.org/2000/svg" xmlns:xlink="http://www.w3.org/1999/xlink" x="0px" y="0px"
	 viewBox="0 0 128 128" style="enable-background:new 0 0 128 128;" xml:space="preserve">
<path d="M56.7,23l4.8-4.8c2-2,5.3-2,7.3,0c0,0,0,0,0,0L111,60.3c2,2,2,5.3,0,7.3c0,0,0,0,0,0l-42.1,42.1c-2,2-5.3,2-7.3,0
	c0,0,0,0,0,0l-4.8-4.8c-2-2-2-5.3,0-7.4c0,0,0,0,0.1-0.1l26.1-24.9H20.6c-2.9,0-5.2-2.3-5.2-5.2c0,0,0,0,0,0v-6.9
	c0-2.9,2.3-5.2,5.2-5.2c0,0,0,0,0,0h62.3L56.8,30.5c-2.1-2-2.2-5.2-0.2-7.3C56.6,23.1,56.7,23.1,56.7,23z"/>
</svg>
