<?xml version="1.0" encoding="utf-8"?>
<!-- Generator: Adobe Illustrator 24.1.0, SVG Export Plug-In . SVG Version: 6.00 Build 0)  -->
<svg version="1.1" id="Camada_1" xmlns="http://www.w3.org/2000/svg" xmlns:xlink="http://www.w3.org/1999/xlink" x="0px" y="0px"
	 viewBox="0 0 128 128" style="enable-background:new 0 0 128 128;" xml:space="preserve">
<g transform="translate(1735.999 -8033.563)">
	<path d="M-1723.1,8051.1h102.3c5.1,0,9.3,4.2,9.3,9.3l0,0c0,5.1-4.2,9.3-9.3,9.3h-102.3c-5.1,0-9.3-4.2-9.3-9.3l0,0
		C-1732.4,8055.2-1728.3,8051.1-1723.1,8051.1z"/>
	<path d="M-1723.1,8088.3h102.3c5.1,0,9.3,4.2,9.3,9.3l0,0c0,5.1-4.2,9.3-9.3,9.3h-102.3c-5.1,0-9.3-4.2-9.3-9.3l0,0
		C-1732.4,8092.4-1728.3,8088.3-1723.1,8088.3z"/>
	<path d="M-1723.1,8125.5h102.3c5.1,0,9.3,4.2,9.3,9.3l0,0c0,5.1-4.2,9.3-9.3,9.3h-102.3c-5.1,0-9.3-4.2-9.3-9.3l0,0
		C-1732.4,8129.6-1728.3,8125.5-1723.1,8125.5z"/>
</g>
</svg>
