<?xml version="1.0" encoding="utf-8"?>
<!-- Generator: Adobe Illustrator 24.1.0, SVG Export Plug-In . SVG Version: 6.00 Build 0)  -->
<svg version="1.1" id="Camada_1" xmlns="http://www.w3.org/2000/svg" xmlns:xlink="http://www.w3.org/1999/xlink" x="0px" y="0px"
	 viewBox="0 0 128 128" style="enable-background:new 0 0 128 128;" xml:space="preserve">
<path d="M120.4,33.6c0-0.1,0-0.2,0-0.3c-0.7-8-7.4-14.4-15.7-14.5h-78c0,0,0,0,0,0c-8.6,0-15.7,7.1-15.8,15.8v58.5
	c0,8.6,7.1,15.7,15.8,15.8h78c8.6,0,15.7-7.1,15.8-15.8V34.5C120.5,34.2,120.5,33.9,120.4,33.6z M26.8,30.9h78c1.1,0,2,0.5,2.7,1.2
	L65.8,61.3L24.1,32.1C24.8,31.4,25.7,30.9,26.8,30.9z M104.8,96.7h-78c-2,0-3.7-1.7-3.7-3.6V46.3l39.2,27.4c1,0.7,2.3,1.1,3.5,1.1
	s2.4-0.4,3.5-1.1l39.2-27.4V93C108.4,95.1,106.7,96.7,104.8,96.7z"/>
</svg>
