<?xml version="1.0" encoding="utf-8"?>
<!-- Generator: Adobe Illustrator 24.1.0, SVG Export Plug-In . SVG Version: 6.00 Build 0)  -->
<svg version="1.1" id="Camada_1" xmlns="http://www.w3.org/2000/svg" xmlns:xlink="http://www.w3.org/1999/xlink" x="0px" y="0px"
	 viewBox="0 0 128 128" style="enable-background:new 0 0 128 128;" xml:space="preserve">
<path d="M106.9,44.8c-2.6-22.6-25.2-33.9-48.7-31.3c-18.3,2.6-36.5,17.4-37.4,39.2c-0.9,13,3.5,22.6,15.7,25.2
	c5.2-9.6-1.7-11.3-2.6-18.3C29.4,30.9,66,11.8,85.1,31.8C99,45.7,90.3,87.5,68.6,83.1C47.7,78.8,79,45.7,62.5,38.7
	c-13.9-5.2-20.9,16.5-14.8,27C44.2,84,35.5,101.4,39,124.9c10.4-7.8,13.9-22.6,17.4-37.4c5.2,2.6,7.8,6.1,14.8,7
	C96.4,96.2,110.3,69.2,106.9,44.8L106.9,44.8z"/>
</svg>
