<?xml version="1.0" encoding="utf-8"?>
<!-- Generator: Adobe Illustrator 24.1.0, SVG Export Plug-In . SVG Version: 6.00 Build 0)  -->
<svg version="1.1" id="Camada_1" xmlns="http://www.w3.org/2000/svg" xmlns:xlink="http://www.w3.org/1999/xlink" x="0px" y="0px"
	 viewBox="0 0 128 128" style="enable-background:new 0 0 128 128;" xml:space="preserve">
<path d="M103.2,119.2c-0.5,0-1,0-1.4-0.1c-16.1-1.8-31.6-7.3-45.1-16c-12.5-7.9-23.3-18.7-31.2-31.2c-8.7-13.5-14.3-29.1-16-45.1
	c-0.4-4.3,0.9-8.4,3.6-11.7c2.7-3.3,6.5-5.3,10.8-5.6c0.5,0,0.9-0.1,1.4-0.1H40c0.1,0,0.1,0,0.2,0c7.8,0,14.6,5.8,15.7,13.7
	c0.6,4.3,1.6,8.5,3.1,12.5c2.2,5.8,0.8,12.3-3.6,16.7l-2.9,2.9C57.9,63.5,65,70.6,73.2,76l2.9-2.8c4.4-4.4,11-5.7,16.7-3.6
	c4,1.5,8.2,2.5,12.4,3.1c7.9,1.1,13.7,7.8,13.7,15.8c0,0.1,0,0.1,0,0.2v14.7c0,4.2-1.6,8.2-4.6,11.2
	C111.4,117.5,107.4,119.2,103.2,119.2z M40,21.6C40,21.6,40,21.6,40,21.6H25.2c-1.3,0.1-2.2,0.6-2.9,1.3c-0.6,0.8-0.9,1.7-0.8,2.7
	c1.5,14,6.4,27.8,14.1,39.7c7,11.1,16.6,20.6,27.6,27.6c11.9,7.7,25.6,12.6,39.7,14.1c1.2,0,2.1-0.4,2.8-1.1
	c0.7-0.7,1.1-1.6,1.1-2.6V88.9c0-0.1,0-0.3,0-0.4c0-1.9-1.3-3.5-3.2-3.8c-5.1-0.7-10.2-1.9-15.1-3.8c-1.4-0.5-2.9-0.2-3.9,0.8
	L78.4,88c-1.9,1.9-4.9,2.3-7.3,1C57.9,81.4,47,70.5,39.5,57.3c-1.4-2.4-0.9-5.4,1-7.3l6.2-6.2c1-1,1.3-2.6,0.8-3.9
	c-1.8-4.9-3.1-9.9-3.8-15.1C43.5,22.9,41.9,21.6,40,21.6z"/>
</svg>
