<?xml version="1.0" encoding="utf-8"?>
<!-- Generator: Adobe Illustrator 24.1.0, SVG Export Plug-In . SVG Version: 6.00 Build 0)  -->
<svg version="1.1" id="Camada_1" xmlns="http://www.w3.org/2000/svg" xmlns:xlink="http://www.w3.org/1999/xlink" x="0px" y="0px"
	 viewBox="0 0 128 128" style="enable-background:new 0 0 128 128;" xml:space="preserve">
<g transform="translate(0 0)">
	<path d="M68.9,8.8L59,10l4.3,34.5"/>
	<path d="M86.5,23.6l-10-3.4l-9.2,27"/>
	<path d="M44.4,0.7L30.8,13.1l29.8,32.8"/>
	<path d="M89.3,32.3L72.2,49.4c13.2,4.5,20.1,18.9,15.6,32c-4.5,13.2-18.9,20.1-32,15.6c-13.2-4.5-20.1-18.9-15.6-32
		c2.5-7.3,8.3-13.1,15.6-15.6L38.7,32.3c-22.6,14-29.6,43.6-15.6,66.2s43.6,29.6,66.2,15.6c22.6-14,29.6-43.6,15.6-66.2
		C101,41.6,95.6,36.2,89.3,32.3L89.3,32.3z"/>
</g>
</svg>
