<?xml version="1.0" encoding="utf-8"?>
<!-- Generator: Adobe Illustrator 24.1.0, SVG Export Plug-In . SVG Version: 6.00 Build 0)  -->
<svg version="1.1" id="Camada_1" xmlns="http://www.w3.org/2000/svg" xmlns:xlink="http://www.w3.org/1999/xlink" x="0px" y="0px"
	 viewBox="0 0 128 128" style="enable-background:new 0 0 128 128;" xml:space="preserve">
<g>
	<path d="M62,9.9c-25.3,0-46,20.6-46,46c0,33.9,40.8,61.5,42.6,62.7c1,0.7,2.2,1,3.4,1c1.2,0,2.3-0.3,3.4-1
		c1.7-1.2,42.6-28.8,42.6-62.7c0,0,0,0,0,0C107.9,30.5,87.3,9.9,62,9.9z M62,105.9C52.8,99,28.2,78.2,28.2,55.8
		C28.2,37.2,43.3,22,62,22c18.6,0,33.8,15.2,33.8,33.8C95.8,78.2,71.1,99,62,105.9z"/>
	<path d="M61.6,34.5c-11.7,0-21.3,9.5-21.3,21.3S49.8,77,61.6,77s21.3-9.5,21.3-21.3S73.3,34.5,61.6,34.5z M61.6,64.8
		c-5,0-9.1-4.1-9.1-9.1s4.1-9.1,9.1-9.1s9.1,4.1,9.1,9.1S66.6,64.8,61.6,64.8z"/>
</g>
</svg>
