<?xml version="1.0" encoding="utf-8"?>
<!-- Generator: Adobe Illustrator 24.1.0, SVG Export Plug-In . SVG Version: 6.00 Build 0)  -->
<svg version="1.1" id="Camada_1" xmlns="http://www.w3.org/2000/svg" xmlns:xlink="http://www.w3.org/1999/xlink" x="0px" y="0px"
	 viewBox="0 0 128 128" style="enable-background:new 0 0 128 128;" xml:space="preserve">
<g transform="translate(-1284.5 860)">
	<path d="M1373.6-851.9h-50.1c-17,0-30.9,13.8-30.9,30.9v50.1c0,17,13.8,30.9,30.9,30.9h50.1c17,0,30.9-13.8,30.9-30.9v-50.1
		C1404.4-838.1,1390.6-851.9,1373.6-851.9z M1394.5-770.9c0,11.6-9.4,20.9-20.9,20.9h-50.2c-11.6,0-20.9-9.4-20.9-20.9v-50.1
		c0-11.6,9.4-20.9,20.9-21h50.1c11.6,0,20.9,9.4,20.9,21L1394.5-770.9L1394.5-770.9z"/>
	<path d="M1348.5-824.8c-15.9,0-28.8,12.9-28.8,28.8c0,15.9,12.9,28.8,28.8,28.8c15.9,0,28.8-12.9,28.8-28.8
		C1377.3-811.9,1364.4-824.8,1348.5-824.8z M1348.5-777.1c-10.4,0-18.9-8.5-18.9-18.9s8.5-18.9,18.9-18.9c10.4,0,18.9,8.5,18.9,18.9
		C1367.4-785.5,1358.9-777.1,1348.5-777.1z"/>
	<circle cx="1378.4" cy="-825.9" r="7.2"/>
</g>
</svg>
