<?xml version="1.0" encoding="utf-8"?>
<!-- Generator: Adobe Illustrator 24.1.0, SVG Export Plug-In . SVG Version: 6.00 Build 0)  -->
<svg version="1.1" id="Camada_1" xmlns="http://www.w3.org/2000/svg" xmlns:xlink="http://www.w3.org/1999/xlink" x="0px" y="0px"
	 viewBox="0 0 128 128" style="enable-background:new 0 0 128 128;" xml:space="preserve">
<g transform="translate(22067.273 380.98)">
	<path d="M-22005.9-370.4c-29.2,1.4-51.8,26.2-50.4,55.5c0.4,7.5,2.3,14.8,5.7,21.5l-5.7,27.3c-0.2,1.1,0.5,2.2,1.6,2.4
		c0.3,0.1,0.6,0.1,0.9,0l26.8-6.3c26.2,13,58,2.3,71.1-23.9c13-26.2,2.3-58-23.9-71.1C-21987.8-368.9-21996.8-370.8-22005.9-370.4z
		 M-21973.9-288c-12.6,12.6-31.9,15.7-47.8,7.8l-3.7-1.9l-16.4,3.9l3.5-16.8l-1.8-3.6c-3-5.8-4.5-12.3-4.5-18.9
		c0-22.9,18.6-41.5,41.5-41.5c22.9,0,41.5,18.6,41.5,41.5C-21961.8-306.4-21966.1-295.8-21973.9-288z"/>
	<path d="M-21977.5-305.9l-10.3-2.9c-1.4-0.4-2.8,0-3.8,1l-2.5,2.6c-1,1.1-2.7,1.4-4.1,0.9c-6.9-3.9-13-9.2-17.7-15.6
		c-0.8-1.3-0.6-3,0.3-4.2l2.2-2.8c0.9-1.1,1.1-2.6,0.5-3.9l-4.3-9.8c-0.9-1.9-3.1-2.8-5-2c-0.3,0.1-0.7,0.3-0.9,0.6
		c-3.4,2.5-5.8,6.1-6.7,10.2c-0.7,7.2,2.4,16.3,14,27.2c13.5,12.6,24.3,14.3,31.3,12.5c4-1,7.2-4.8,9.2-8c1.1-1.8,0.6-4.1-1.2-5.3
		C-21976.9-305.7-21977.2-305.8-21977.5-305.9L-21977.5-305.9z"/>
</g>
</svg>
