<?xml version="1.0" encoding="utf-8"?>
<!-- Generator: Adobe Illustrator 24.1.0, SVG Export Plug-In . SVG Version: 6.00 Build 0)  -->
<svg version="1.1" id="Camada_1" xmlns="http://www.w3.org/2000/svg" xmlns:xlink="http://www.w3.org/1999/xlink" x="0px" y="0px"
	 viewBox="0 0 128 128" style="enable-background:new 0 0 128 128;" xml:space="preserve">
<path d="M119.5,35.9c-1.3-5-5.2-8.9-10.2-10.3c-9.1-2.4-45.3-2.4-45.3-2.4s-36.2,0-45.3,2.4c-5,1.4-8.9,5.3-10.2,10.3
	C6.1,45,6.1,64,6.1,64s0,19,2.4,28.1c1.3,5,5.2,8.9,10.2,10.3c9,2.4,45.3,2.4,45.3,2.4s36.2,0,45.3-2.4c5-1.4,8.9-5.3,10.2-10.3
	c2.4-9.1,2.4-28.1,2.4-28.1S121.9,45,119.5,35.9z M52.1,81.2V46.8L82.4,64L52.1,81.2z"/>
</svg>
